<?xml version="1.0" encoding="UTF-8" standalone="yes"?>
<svg version="1.1" viewBox="0.0 0.0 800.0 600.0" fill="none" stroke="none" stroke-linecap="square" stroke-miterlimit="10" xmlns="http://www.w3.org/2000/svg" xmlns:xlink="http://www.w3.org/1999/xlink"><clipPath id="p.0"><path d="m0 0l800.0 0l0 600.0l-800.0 0l0 -600.0z" clip-rule="nonzero"/></clipPath><g clip-path="url(#p.0)"><path fill="#000000" fill-opacity="0.0" d="m0 0l800.0 0l0 600.0l-800.0 0z" fill-rule="nonzero"/><path fill="#ffffff" d="m534.4514 221.82939l0.13391113 0.0446167l0.4487915 0.76116943l0.89764404 2.6010437l1.5249023 5.5643005l1.5249634 6.637802l0.62731934 3.3202057l0.4487915 2.6456757l0.49346924 3.5879211l0 0.44882202l-9.238892 0.0446167l-31.175842 -0.0892334l-40.146973 -0.17848206l0.1784668 -12.112869l0.22573853 -12.065613l36.960632 0l16.687653 -0.0446167l15.160095 -0.22572327l4.7559204 -0.26771545l0.4041748 -0.17848206l0 -0.35957336l0.0892334 -0.13386536zm6.8189087 31.35434l0.0892334 0.1338501l0.31500244 1.3018341l0.671875 6.860901l0.58270264 9.018372l0.22570801 7.984253l-0.09185791 2.3753357l-0.58270264 8.031494l-0.897583 9.328064l-0.67193604 4.7113037l-0.49346924 3.1390991l-0.8529663 4.7559204l-0.26776123 0.8503723l-0.13647461 0.18112183l-0.76116943 0.2677002l-2.7374878 0.31497192l-14.262512 0.40420532l-22.026215 0.0892334l-39.338593 0.1784668l0 -15.070862l0 -15.070862l39.204712 0l22.249329 -0.0446167l14.22052 -0.27035522l2.7348633 -0.3149414l0.89764404 -0.3123474l0.17852783 -0.18109131l0.3595581 -0.4015808l0.4041748 -1.6614075l0.35699463 -5.6063232l0.04724121 -7.894989l0.0446167 -5.7874146l0.1784668 -5.3805847l0.2230835 -1.7506561l0.09185791 -0.1784668zm-132.95535 -65.58006l54.769012 0.13386536l22.653534 0.0892334l36.826813 0.27033997l8.254578 0.17848206l12.963257 0.40420532l0.1784668 15.519684l0.22570801 15.475067l-5.8320312 0.44880676l-4.3963013 0.18110657l-23.45932 0.26771545l-15.251984 0l-19.333313 0.0446167l-14.128601 0.27035522l-3.005249 0.2230835l-0.80841064 0.22572327l-0.0892334 0.13386536l0 12.692917l0.0446167 13.905502l2.241455 0.22572327l21.937012 0.31233215l56.427856 0l0 15.790039l0 15.745392l-39.427856 0.0446167l-15.834625 0.0446167l-17.448822 0.22573853l-6.32547 0.2230835l-0.76116943 0.089263916l-0.2703247 0.2703247l-0.35958862 1.7926636l-0.2677002 6.2808228l0 8.522308l0.0446167 6.5485535l0.2677002 9.196869l0.13650513 1.1653442l0.5826721 0.1338501l5.5170593 0.27035522l16.283447 0.2230835l16.461945 0.04724121l15.653564 0l23.774292 0.2677307l4.307068 0.1784668l5.3831787 0.44882202l0 16.59842l0 16.595825l-14.220459 0.49343872l-8.748047 0.1784668l-37.498657 0.22570801l-22.698181 0.044647217l-54.724396 0l-0.44882202 -3.228363l-0.17849731 -6.1915894l-0.22570801 -44.451447l0 -58.0l0.22570801 -43.690292l0.17849731 -5.4724426l0.40420532 -1.6141815zm-320.45407 0.7165375l0 61.67717l0 32.118103l0.26771545 23.32547l0.27033997 4.934387l0.22309875 1.3910828l0.09186554 0.0892334l9.598419 0.1338501l30.905518 0.0446167l39.608917 0l0.17848206 19.11023l0.18110657 19.152252l-20.141739 -0.22311401l-25.703407 -0.18109131l-39.16011 -0.17849731l-44.677162 -0.1784668l0 -80.60892l0 -80.60631zm199.02887 -3.8136444l10.763763 0.6299286l7.5800476 0.9868622l4.7113037 0.80578613l4.351715 1.0314941l3.9474792 1.167984l1.7480469 0.6272888l2.4671936 1.0314941l4.530182 2.1076202l4.0839844 2.377945l3.6325378 2.6010437l3.2729797 2.9160156l2.871399 3.1863556l2.6010437 3.5433044l2.2886963 3.9475098l1.0315247 2.107605l0.8529968 1.9737549l1.8399048 4.8897705l1.5695496 5.0682373l0.94226074 4.036743l0.0892334 1.1207428l0 0.22572327l-0.3149414 0.40419006l-1.8399048 0.49343872l-13.320221 1.1207428l-24.223083 1.3464508l-7.1784973 0.4015808l-0.7165222 -2.734909l-0.44882202 -1.5249329l-0.94226074 -2.6929169l-1.1653442 -2.4671936l-1.3464661 -2.2414703l-1.5695496 -1.9737549l-1.7506714 -1.7506561l-1.9737244 -1.5249329l-2.2414856 -1.3438263l-1.2125854 -0.6299286l-1.2546082 -0.5826721l-2.1522217 -0.7165375l-2.5118103 -0.40420532l-3.7244263 -0.1338501l-2.6456604 0l-3.5433044 0.0446167l-3.9475098 0.26771545l-2.1102295 0.31495667l-1.7480469 0.5380554l-1.5695496 0.7165375l-2.0629883 1.5721893l-1.3910828 1.4356842l-1.1679688 1.3438416l-1.6141663 2.7821503l-0.76116943 2.7795258l0.0446167 2.7375336l0.85040283 2.556427l1.6614075 2.3779602l2.422577 2.107605l3.1390991 1.7952728l1.8399048 0.6719208l2.3753357 0.7637787l8.254578 2.152237l4.574829 1.0761108l8.477692 1.9291382l14.354309 3.7690277l11.6640625 3.7217865l7.1758423 2.826767l4.173218 1.9291229l1.881897 0.98687744l1.6167908 0.89501953l3.228363 2.0183716l3.0498657 2.3333435l2.9606323 2.556427l2.7375183 2.6929016l2.4671936 2.871399l2.2414856 2.9580078l1.8398743 2.9606323l0.80841064 1.5275574l0.7165222 1.5249329l1.2572327 3.4986877l0.98687744 3.9475098l0.7165222 4.21521l0.44882202 4.3070984l0.17849731 4.2598267l-0.17849731 4.036743l-0.49343872 3.7244263l-0.35958862 1.658783l-0.6272888 2.1548767l-1.3910828 4.21521l-1.7033997 3.9475098l-1.9737549 3.8136292l-2.2440796 3.543335l-2.4671936 3.3648071l-2.779541 3.1837463l-3.005249 2.9160156l-3.2755737 2.7348938l-3.4986877 2.4671936l-3.769043 2.2886963l-3.9921265 2.018402l-4.21521 1.7952576l-4.485565 1.5695496l-4.7113037 1.3438416l-4.8897705 1.0787354l-2.556427 0.44882202l-3.766388 0.5380554l-9.779541 0.6719055l-10.944885 0.22311401l-10.272949 -0.3123474l-4.170624 -0.3595581l-4.3516846 -0.49343872l-7.984268 -1.3464661l-7.1312256 -1.7926636l-6.3700867 -2.2440796l-5.7427673 -2.779541l-5.1128693 -3.3201904l-4.708664 -3.9921265l-4.3517 -4.619446l-2.0183716 -2.6036682l-0.94226074 -1.2545776l-1.8398895 -3.0498657l-1.7926636 -3.4986877l-1.7506561 -3.8136597l-1.5249329 -3.902893l-1.3018341 -3.902893l-0.98687744 -3.6325378l-0.5826721 -3.230957l-0.13386536 -1.3884583l-0.22572327 -3.8136597l3.141739 -0.49343872l2.152237 -0.2703247l10.091858 -0.67193604l6.3254547 -0.3595581l13.05249 -0.67193604l7.3123474 -0.49343872l4.934372 -0.40420532l0.89764404 4.4409485l0.5380554 2.3779602l1.5249481 4.351715l2.0183716 3.9475098l2.556427 3.454071l1.4803162 1.5695496l1.6141663 1.5249329l3.2756042 2.422577l3.4540405 1.792633l3.8582764 1.1679993l2.196869 0.4015503l1.8398743 0.27035522l3.454071 0.35958862l3.228363 0.0446167l3.097107 -0.18112183l2.913391 -0.49343872l2.7375183 -0.7165222l2.6010437 -0.98687744l2.422577 -1.2546082l1.1653442 -0.7637634l0.98687744 -0.6272888l1.7060547 -1.3910828l1.4356995 -1.4356995l1.1653442 -1.5249329l0.89764404 -1.6141663l0.6719055 -1.7060547l0.44882202 -1.792633l0.18109131 -1.9291382l0 -1.0314941l-0.09185791 -1.7952881l-0.3569336 -2.8267517l-0.85302734 -2.4199524l-1.4356995 -2.3333435l-1.0314941 -1.3464661l-0.6719055 -0.8057556l-1.9291382 -1.5721741l-2.5118103 -1.5695801l-3.1863708 -1.5249329l-3.8110046 -1.4803162l-4.4409485 -1.435669l-7.8950195 -2.196869l-6.236206 -1.3910828l-3.320221 -0.7611389l-6.5485535 -1.7506714l-6.3700867 -1.9291077l-6.0997314 -2.1522522l-5.6955414 -2.333313l-5.3385773 -2.422577l-4.800537 -2.556427l-4.259842 -2.645691l-1.8398895 -1.3464355l-1.5249329 -1.1653748l-2.7375336 -2.422577l-2.5118103 -2.6010437l-2.1968536 -2.7375336l-1.9737549 -2.9160004l-1.658783 -3.005249l-1.3910828 -3.0944977l-1.0761108 -3.230957l-0.8083954 -3.2729797l-0.5380707 -3.3648224l-0.22309875 -3.454071l0.08924866 -3.454071l0.35694885 -3.4540558l0.6745453 -3.5433197l0.98687744 -3.4986877l1.2992096 -3.4540558l0.7637787 -1.7480316l1.3018341 -2.5590668l3.049881 -4.7978973l3.7217712 -4.3963165l4.351715 -3.9475098l4.8897552 -3.454071l5.4724426 -3.005249l5.9658813 -2.5118103l6.45932 -1.9737549l3.409439 -0.7637787l2.8687744 -0.5826721l6.102356 -0.85040283l6.3700867 -0.62991333l6.5485535 -0.3123474l3.3175964 -0.09185791zm-11.125977 -1.6587982l-7.401581 0.31497192l-2.4671936 0.26771545l-6.233612 0.8976288l-7.041992 1.3464661l-3.9474945 0.9422455l-3.545929 1.1653595l-3.4514465 1.4356995l-5.3385925 2.6902924l-4.2178497 2.5118103l-1.837265 1.2126007l-4.485565 3.9028778l-4.3963165 4.530182l-2.4671936 2.9606323l-0.94226074 1.5249329l-0.18110657 0.5380554l-0.22309875 0.6719208l-0.49343872 0.89764404l-0.27033997 0.0892334l-0.22309875 0.0892334l-0.49343872 0.6745453l-0.1784668 0.49343872l-0.6299286 1.7480316l-1.1653442 3.141739l-0.5380707 1.5249329l-0.8530121 3.409439l-0.6273041 3.7217865l-0.31495667 3.902893l-0.0892334 3.9475098l0.22572327 3.9474945l0.44882202 3.7217865l0.7611542 3.4986877l0.49343872 1.5721893l0.6272888 1.7480316l1.5695496 3.409439l1.9737549 3.3648376l2.2887115 3.2729645l2.6456757 3.1417236l2.9160156 2.913391l3.1417236 2.7375183l3.3175812 2.422577l1.7506561 1.0761108l1.6141815 0.94226074l5.0682373 2.5118103l5.6089325 2.556427l4.393692 1.8399048l0.94226074 0.2677307l1.0314941 0.2703247l1.7952728 0.6272888l4.215225 1.3464661l16.7323 4.530182l5.6981506 1.3464661l3.9921265 0.85040283l5.383209 1.6167908l3.1837158 1.2099609l2.871399 1.3018494l2.5118103 1.3884583l2.1968384 1.5275574l1.8845215 1.5695496l1.5249329 1.7033997l1.1653442 1.7506714l0.85302734 1.8372498l0.44882202 1.9291382l0.1338501 1.9737549l-0.2677002 2.0183716l-0.62994385 2.11026l-1.0314941 2.107605l-0.6272888 1.1207275l-0.6719055 0.94226074l-1.6141663 1.7480164l-2.0656433 1.5249329l-2.3306885 1.3910828l-2.6483154 1.123352l-2.7795105 0.85040283l-2.9606323 0.5826721l-3.005249 0.22573853l-1.5249329 0l-2.0183716 -0.0446167l-1.4803162 -0.0446167l-0.98687744 -0.044647217l-2.1102295 -0.3595581l-3.4068298 -0.98687744l-4.577423 -2.0629883l-3.0944824 -1.9737549l-1.8845215 -1.4356995l-0.80578613 -0.80841064l-0.67453 -0.6719055l-1.4356995 -1.8399048l-2.0183716 -3.2729492l-2.1968384 -4.934387l-1.0761414 -3.5905457l-0.3595581 -2.1076355l-0.0446167 -0.8976135l-0.089263916 -0.67193604l-0.67453 -1.2099609l-0.49343872 -0.31497192l-0.8503876 -0.2230835l-4.845154 -0.04724121l-7.086609 0.2703247l-7.356949 0.49343872l-3.1391144 0.35958862l-3.724411 0.3569641l-13.05249 0.62991333l-5.0236206 0.1338501l-1.3464661 0.0446167l-2.377945 0.49343872l-0.6719208 0.35958862l-0.40419006 0.3123474l-0.44882202 0.67453l-0.08924866 1.7033997l0.40420532 2.422577l0.6719208 3.8582764l0.49343872 3.0498657l0.27033997 1.3018494l0.98687744 3.4067993l0.5826721 1.5722046l0.98687744 2.5118103l2.1968536 4.7086487l2.3333282 4.396332l2.556427 3.9921265l2.7375336 3.6771545l2.9606323 3.320221l3.2283478 3.0498657l3.4986877 2.6929016l3.724411 2.3753357l4.08136 2.1102295l4.351715 1.8372803l4.664032 1.5721741l5.0236206 1.3438416l5.427841 1.0314941l5.7427673 0.8529968l6.188965 0.58270264l3.2756042 0.22570801l3.7664185 0.22311401l8.522308 0.0892334l8.614166 -0.17849731l7.6246643 -0.44882202l3.005249 -0.3149414l2.5118103 -0.3569641l4.979004 -0.94226074l4.8897705 -1.2125854l4.75589 -1.4356995l4.530182 -1.7033997l4.3490906 -1.9291382l3.9921265 -2.1522522l3.679779 -2.333313l1.7034302 -1.2099915l1.3018188 -1.0314941l2.6903076 -2.5118103l2.782135 -2.9606323l2.6903076 -3.3201904l2.5590515 -3.4986877l2.3753357 -3.5879517l1.9737549 -3.5433044l1.6167908 -3.3201904l0.5380554 -1.5695496l0.5826721 -1.7506714l0.94226074 -3.9475098l0.6272888 -4.3044434l0.40420532 -4.485565l0.0892334 -4.5774536l-0.22570801 -4.4855347l-0.4908142 -4.2152405l-0.76379395 -3.7690125l-0.5380554 -1.6588135l-0.5826721 -1.7506409l-1.3910828 -3.3175964l-1.6141663 -3.1417236l-1.8399048 -3.005249l-2.107605 -2.8241577l-2.3333435 -2.648285l-2.6456604 -2.556427l-2.9160156 -2.3779602l-3.1863403 -2.330719l-3.5433044 -2.1548462l-3.8556519 -2.0629883l-4.2178345 -2.0183716l-6.952759 -2.8267822l-10.674561 -3.5879211l-6.0131226 -1.7034149l-3.6771545 -0.98687744l-9.196838 -2.1548462l-9.3280945 -1.9711304l-3.4094543 -0.7637787l-5.6981506 -1.6141815l-4.3937073 -1.7506561l-2.4671936 -1.4356995l-1.3018494 -1.0314941l-0.49343872 -0.49343872l-0.4487915 -0.5380554l-0.67193604 -1.0314941l-0.40420532 -1.2099762l-0.1784668 -1.4803162l0 -0.9422455l0.0446167 -1.5695648l0.49343872 -2.0183716l0.5380554 -1.1679688l0.80578613 -1.1207428l1.0314941 -1.0314941l2.0183716 -1.4803162l1.7952881 -0.94226074l1.2572021 -0.6719055l2.0183716 -0.80841064l2.2414856 -0.31495667l3.4094238 0l2.556427 0.09185791l2.1994934 0.08924866l3.3622131 0.26771545l2.4225464 0.40419006l1.9291382 0.6719208l0.94226074 0.44882202l1.3464661 0.719162l2.6456604 1.8398895l2.24411 1.9711304l1.0761108 1.2572174l0.3569641 0.7165375l0.04724121 0.22572327l0.0446167 0.40420532l0.5380554 0.8976288l0.40420532 0.3569641l0.49343872 0.5826721l1.2099609 2.6036682l0.5380554 1.6587982l0.5826721 1.8845062l0.94226074 2.330719l0.80841064 0.8530121l0.6272888 0.31495667l1.2572327 0.08924866l1.2099609 -0.13386536l6.45932 -0.44882202l30.816284 -1.7060242l6.685028 -0.26771545l0.4015808 0l0.62991333 -0.27035522l0.49343872 -0.44880676l0.3569641 -0.7611542l0.2703247 -1.5249329l-0.18109131 -3.049881l-0.3569641 -1.9737549l-0.5380554 -2.6929016l-1.1679688 -4.574814l-1.5249329 -4.036743l-2.0183716 -4.036743l-1.3464661 -2.1994781l-1.5249329 -2.4671936l-3.3622131 -4.393692l-3.7690125 -3.8582764l-4.2152405 -3.3648224l-4.8005066 -2.871399l-5.3385925 -2.4671783l-6.0551147 -2.1076202l-6.774292 -1.7034149l-3.7217712 -0.7637787l-2.0183716 -0.31495667l-5.8320312 -0.5380554l-11.034119 -0.5380554l-7.7611694 -0.08924866zm230.96848 178.3307l-0.2703247 0.1076355l0.2677002 0.0892334l3.8136597 0.22570801l13.007904 0.22311401l55.892334 0.2703247l68.67456 0.0446167l52.391113 0.0446167l71.68237 0.27035522l7.8031616 0.1784668l0.2703247 0.17849731l0.40423584 1.3018188l0.3569336 3.1837463l-0.0446167 5.2493286l-0.4487915 3.1837158l-0.44622803 1.2572327l-0.3149414 0.2230835l-2.2440796 0.13650513l-20.766418 0.1784668l-55.398987 0.0892334l-92.80835 -0.1338501l-55.039368 -0.27035522l-20.364868 -0.2230835l-1.9737549 -0.1338501l-3.7218018 0.1338501l-2.107605 0.1338501l-0.18109131 0.0892334l1.7952881 0.089263916l0.0892334 0.09185791l-1.1207275 0l-0.89764404 -0.0446167l-0.1338501 -0.13650513l0.1338501 -0.0892334l0 0l-1.0761108 0.0446167l-6.7296753 0.22573853l-1.7480469 0.2677002l-1.6141357 0.0446167l-1.0787354 -0.0892334l-0.35699463 0l-0.4934082 0.35958862l-0.0446167 0.3123474l-0.023620605 0.11810303l0 0l-2.131256 -0.11810303l-14.173218 -0.2677307l-62.125977 -0.31497192l-77.55905 -0.0892334l-60.286102 -0.0446167l-65.490814 -0.2703247l-23.144348 -0.22311401l-2.2440948 -0.0892334l-0.17848206 -0.67453l-0.22572327 -4.259857l0.0446167 -2.9160156l0.18110657 -7.312317l142.59842 -0.17849731l59.83728 -0.0892334l94.55905 -0.31497192l5.204712 -0.06298828zm-177.1391 -284.6404l5.0236206 0.04462433l9.687683 0.4488144l4.6194153 0.44882202l7.2230835 0.8083954l4.351715 0.40420532l3.2283325 0.40157318l3.4094543 0.62992096l3.5879211 0.7611542l3.769043 0.7637787l4.4409485 0.98687744l5.740143 1.4803162l5.2047424 1.3884506l2.5118103 0.67453766l2.9606323 0.8530197l8.97113 2.82415l2.0629883 0.7637787l2.199463 0.8976364l4.1259766 1.6141739l2.779541 1.1207352l7.582672 3.4094467l8.2966 4.036743l7.13385 3.724411l2.3779602 1.3884506l3.5433044 2.1102371l1.2099609 0.62729645l0.85302734 0.4041977l5.5170593 3.5879288l3.0944824 2.1522293l6.908142 5.023628l6.4147034 4.9789963l2.2886963 1.8398972l3.543335 2.8713913l2.241455 1.8845215l5.070862 4.7532806l5.5170593 5.653534l5.6955566 6.18898l5.6062927 6.503937l5.204712 6.4147034l4.6194153 6.0551147l3.6325684 5.427826l1.3910522 2.2887115l0.94226074 1.6141663l1.5249634 2.422577l0.4041748 0.35957336l0.3149414 0.26771545l0.85040283 1.3910828l0.94226074 1.7480316l0.62994385 1.5249329l0.0446167 0.44882202l-0.76379395 0.09185791l-8.611542 0.26771545l-24.446198 0.31497192l-22.608917 0.0892334l-56.43045 0.17848206l0 82.93964l0 33.23883l0.13647461 45.21524l0.089263916 4.8005066l3.4540405 0.0892334l32.385834 0.17849731l23.729675 0l24.939636 0.0446167l25.299194 0.22570801l8.611572 0.22311401l0.85302734 0.18109131l0.0892334 0.4015808l-0.62731934 2.1102295l-0.58270264 1.2992249l-0.4934082 0.94226074l-0.80841064 1.3018188l-0.85302734 0.71655273l-1.0761108 0.3149414l-0.76116943 0.0892334l-2.4225464 0.13388062l-5.446167 0.29656982l0 0l-0.07092285 -0.07086182l-20.679749 -0.18109131l-154.80054 -0.4015808l-72.62204 -0.0446167l-38.3071 0l-17.853012 0.0892334l-5.427826 0.0446167l0 8.700806l0.0446167 3.5433044l0.22572327 5.2939453l0.17848206 0.94226074l0.17848206 0.1784668l2.1548462 0.27035522l9.015747 0.3123474l53.065613 0.22570801l86.572174 -0.0446167l77.06302 -0.0892334l62.88974 -0.27035522l14.847778 -0.2230835l2.7375488 -0.11022949l0 0l-1.1679993 1.9028625l-3.3648376 4.7559204l-6.5485535 8.343842l-6.9081116 8.251953l-2.9160156 3.1417236l-3.8110352 3.9002686l-9.419952 9.196869l-4.979004 4.664032l-1.6167908 1.4356995l-4.1259766 3.2755737l-8.388458 6.010498l-7.939636 5.293976l-5.8320312 3.8556519l-2.9606018 1.9291382l-1.2546082 0.8083801l-5.6981506 2.9160156l-11.661438 5.6509094l-6.59317 2.9606323l-3.4986877 1.4803162l-7.582672 2.871399l-8.073486 2.6456604l-8.433075 2.4671936l-8.656158 2.196869l-8.748047 1.9291077l-8.700775 1.6168213l-8.433075 1.2099609l-4.128601 0.44882202l-3.4094543 0.2677002l-11.438324 0.35958862l-13.275604 0.0446167l-10.766388 -0.2230835l-2.7821655 -0.22573853l-4.7086487 -0.6272888l-11.619415 -1.8845215l-11.706055 -2.107605l-9.152222 -1.9291382l-2.4199524 -0.6719055l-3.8136597 -1.2125854l-6.370056 -1.9737549l-5.023636 -1.6141968l-11.708664 -4.5747986l-12.1102295 -5.427826l-8.162735 -4.1259766l-4.711273 -2.556427l-1.9737549 -1.2125854l-5.6509247 -3.5879517l-11.931763 -7.8057556l-1.7952728 -1.3438416l-0.94226074 -0.85302734l-2.377945 -1.7506409l-1.7034149 -1.2546082l-4.08136 -3.3648071l-7.041992 -6.32547l-10.139114 -9.868774l-6.952759 -7.3989563l-3.9475098 -4.577423l-1.658783 -2.0183716l-4.125992 -5.291321l-6.1469727 -8.56955l-2.5118103 -3.7664185l-0.22309875 -0.5826721l-0.719162 -1.3910828l-2.3307037 -3.7690125l-1.4356995 -2.2414856l-3.3648376 -6.0551147l-1.4803162 -2.871399l-3.1390991 -6.3700867l2.107605 -0.4487915l1.8399048 -0.17849731l10.853012 -0.22570801l24.986877 0l0 -21.036743l0 -10.811035l-0.27033997 -7.984253l-0.26771545 -1.7480164l-0.22572327 -0.49343872l-0.0892334 -0.04727173l-5.2021027 0l-15.745407 0.04727173l-8.343842 0l-14.173225 -0.22573853l-3.545929 -0.1784668l-6.010498 -0.44882202l-0.7165375 -4.6666565l-0.5380554 -4.0367737l-0.8976364 -8.881866l-0.49343872 -9.372711l-0.08924103 -9.196838l0.13385773 -4.259857l0.3149643 -6.908142l0.9422531 -10.094482l0.93963623 -6.5485535l0.58529663 -3.5433044l2.1968536 -9.375336l2.8267746 -10.317581l2.916008 -9.060364l1.2545929 -3.183731l1.7060394 -4.173233l1.3438263 -3.4986877l0.5380554 -1.388443l1.3018494 -2.7821503l0.5826721 -0.89764404l0.44882202 -0.7611542l0.6719055 -1.3910828l0.04725647 -0.40419006l0.1338501 -0.6273041l1.1207428 -2.6036682l3.3202057 -6.010498l6.4147034 -10.451447l6.8608856 -10.13649l2.9160156 -3.858261l2.3333282 -3.005249l2.0183716 -2.6010437l1.3018341 -1.6587982l3.3622131 -3.858261l6.1469727 -6.5485687l9.464569 -9.24147l6.908142 -6.144348l4.08136 -3.4094543l1.7952728 -1.3910751l2.2414703 -1.6587906l1.9291382 -1.5249329l1.4356995 -1.078743l7.8950043 -5.291336l8.611557 -5.5170593l1.7506561 -1.1233597l4.7978973 -2.6456757l8.881882 -4.4855576l13.18898 -6.0105057l8.745407 -3.5433044l4.577423 -1.6141739l1.7034302 -0.49343872l4.1259766 -1.1233597l7.939636 -2.286087l3.454071 -0.98687744l7.178467 -1.7506561l7.401581 -1.5249329l7.5800476 -1.2992172l7.7138977 -1.0341187l7.7165527 -0.8057709l7.7138977 -0.53806305l7.671936 -0.27033997zm-0.62991333 -1.3438263l-7.535431 0.0446167l-11.304474 0.26771545l-8.97113 0.719162l-9.238831 1.4330673l-5.698181 1.0341263l-4.5747986 0.8950119l-9.824127 2.2887115l-9.330719 2.4225693l-7.3097076 2.1968536l-2.2440948 0.8976364l-2.8267822 1.1207352l-6.32283 2.4225693l-3.724411 1.4803162l-7.3097076 3.1863556l-7.2677155 3.4540634l-7.178482 3.8556442l-7.1312256 4.173233l-7.131241 4.5747986l-7.13385 4.934387l-7.265091 5.3832016l-3.6797943 2.8687668l-2.601059 2.1994705l-7.805771 7.312332l-8.790024 8.656174l-7.178482 7.535431l-2.0183716 2.3779602l-2.2414703 2.826767l-0.8976288 1.0314941l-0.7637787 0.98687744l-1.881897 2.5118103l-2.2887115 3.183731l-2.3333282 3.1390991l-1.9737549 2.7821655l-4.7532806 7.716522l-5.070877 8.926514l-4.48555 8.745407l-1.7034149 3.724411l-1.6587982 3.7664032l-3.0498657 7.8503876l-2.7375336 8.073502l-2.4671936 8.165344l-2.1076126 8.207352l-1.7060318 8.073502l-1.2992172 7.8503876l-0.8530197 7.490814l-0.26771545 3.5905457l-0.18109894 4.3937073l0 10.811035l0.359581 11.34906l0.67191315 9.779541l0.44882202 3.454071l1.3018341 8.251953l-24.986877 0l0 -60.24147l0 -26.419937l-0.26771545 -25.703415l-0.22572327 -8.792648l-0.17847443 -1.1207428l-0.6719208 -1.7926483l-26.15223 0.17848206l-26.104984 0.17848206l0 83.02887l0 83.07611l45.887135 0.3569641l45.88714 0.3595581l0.85302734 1.7480469l2.2887115 4.577423l4.8871307 9.10498l5.115494 8.656189l5.0682373 7.8503723l2.4671936 3.454071l2.734909 3.6351624l5.653549 7.0866394l6.010498 6.8162537l6.280838 6.551178l6.5485535 6.3228455l6.816269 6.010498l7.0446167 5.6981506l7.309723 5.4724426l7.5380554 5.1128845l7.713913 4.8005066l7.939621 4.485565l8.118118 4.170624l8.29921 3.8136292l8.433075 3.454071l8.566925 3.0944824l8.7034 2.7375488l4.4409485 1.2099609l4.934387 1.2572327l10.317596 2.3306885l10.270325 1.8845215l9.690308 1.4356995l4.34906 0.44882202l3.902893 0.2230835l14.35434 0l17.136475 -0.3569336l13.994751 -0.67456055l3.5433044 -0.40420532l4.979004 -0.8057556l9.419952 -1.7506714l8.881897 -1.9291382l8.477692 -2.1968384l8.16272 -2.4671936l7.984253 -2.7348938l7.8950195 -3.0971375l7.939636 -3.4540405l4.036743 -1.881897l3.1863403 -1.5721741l8.16275 -4.3937073l8.56955 -4.979004l6.952759 -4.3070984l2.0629883 -1.4803162l2.4671936 -1.7952576l6.6824036 -4.979004l3.7243958 -2.8241577l7.8477783 -6.6404114l7.805786 -7.265106l7.312317 -7.490814l3.2729797 -3.679779l4.800537 -5.740143l7.8057556 -10.049896l3.7217712 -5.0682373l0.80841064 -1.3464355l0.1338501 -0.22311401l1.2125854 -0.40420532l6.189026 -0.3595581l44.85559 -0.2677307l82.62732 0.0892334l81.63782 0.0892334l45.170593 -0.2677002l6.370056 -0.35958862l1.1653442 -0.35958862l0.044677734 -0.2230835l0.09185791 -2.6929016l-0.09185791 -6.099762l-0.31237793 -5.6062927l-0.4487915 -3.7243958l-0.22570801 -0.49343872l-1.9737549 -0.1338501l-19.690308 -0.13388062l-55.577454 -0.1338501l-51.002625 0.0446167l-50.955383 0.0446167l-55.22046 -0.1338501l-19.422546 -0.18109131l-1.7926636 -0.089263916l0.0892334 -0.5380554l0.67193604 -1.8398743l0.98687744 -2.0183716l0.94226074 -1.5695801l0.3595581 -0.3149414l0.85302734 -0.22311401l5.6954956 -0.2703247l3.902893 -0.0446167l9.643066 0l0 -19.196869l0 -7.312317l-0.0892334 -6.908142l-0.2230835 -2.871399l-0.40423584 -1.7480164l-0.7637329 -0.89764404l-1.7034302 -0.35958862l-1.8399048 0.0446167l-2.8241577 0l0.49346924 -2.6456604l0.4934082 -2.7821655l0.89501953 -5.921234l0.98687744 -9.464569l0.67456055 -13.186371l-0.0446167 -9.824127l-0.27038574 -6.3700867l-0.2230835 -3.0498657l-0.3595581 -4.485565l-0.80841064 -7.4461975l-0.3123169 -1.7480316l-0.94226074 -4.173233l-1.5695801 -7.401581l-1.5275269 -7.1312256l-0.89501953 -3.183731l-0.18109131 -0.49343872l0 -0.67453l0.7191162 -0.35958862l1.7926636 -0.1338501l1.43573 -0.08924866l4.3516846 -0.22309875l0 -18.2126l0 -18.212585l-12.202087 -0.3569641l-5.6955566 -0.18110657l-5.0236206 -0.44880676l-1.5695801 -0.3123474l-0.18109131 -0.22572327l-0.3123169 -0.8057709l-1.4803467 -2.648285l-3.543274 -5.740158l-6.32547 -9.330719l-6.3700867 -8.748032l-2.5118103 -3.1390991l-3.0944824 -3.5879364l-6.3254395 -6.9527435l-6.5932007 -6.5931854l-6.7742615 -6.280838l-6.9973755 -6.010498l-7.223114 -5.6535416l-7.4461975 -5.3359604l-7.6246643 -4.9789963l-7.8057556 -4.7112885l-8.073517 -4.3517075l-8.207336 -3.9921265l-8.433075 -3.6771622l-8.614166 -3.36483l-8.790039 -3.005249l-8.97113 -2.645668l-9.152222 -2.3333359l-4.6194153 -1.0314941l-5.876648 -1.2099762l-10.451447 -1.6614151l-10.585297 -0.98687744l-12.425201 -0.35695648l-7.627289 -0.0446167z" fill-rule="nonzero"/><path stroke="#ffffff" stroke-width="4.485564304461942" stroke-miterlimit="170.9031" stroke-linecap="butt" d="m534.4514 221.82939l0.13391113 0.0446167l0.4487915 0.76116943l0.89764404 2.6010437l1.5249023 5.5643005l1.5249634 6.637802l0.62731934 3.3202057l0.4487915 2.6456757l0.49346924 3.5879211l0 0.44882202l-9.238892 0.0446167l-31.175842 -0.0892334l-40.146973 -0.17848206l0.1784668 -12.112869l0.22573853 -12.065613l36.960632 0l16.687653 -0.0446167l15.160095 -0.22572327l4.7559204 -0.26771545l0.4041748 -0.17848206l0 -0.35957336l0.0892334 -0.13386536zm6.8189087 31.35434l0.0892334 0.1338501l0.31500244 1.3018341l0.671875 6.860901l0.58270264 9.018372l0.22570801 7.984253l-0.09185791 2.3753357l-0.58270264 8.031494l-0.897583 9.328064l-0.67193604 4.7113037l-0.49346924 3.1390991l-0.8529663 4.7559204l-0.26776123 0.8503723l-0.13647461 0.18112183l-0.76116943 0.2677002l-2.7374878 0.31497192l-14.262512 0.40420532l-22.026215 0.0892334l-39.338593 0.1784668l0 -15.070862l0 -15.070862l39.204712 0l22.249329 -0.0446167l14.22052 -0.27035522l2.7348633 -0.3149414l0.89764404 -0.3123474l0.17852783 -0.18109131l0.3595581 -0.4015808l0.4041748 -1.6614075l0.35699463 -5.6063232l0.04724121 -7.894989l0.0446167 -5.7874146l0.1784668 -5.3805847l0.2230835 -1.7506561l0.09185791 -0.1784668zm-132.95535 -65.58006l54.769012 0.13386536l22.653534 0.0892334l36.826813 0.27033997l8.254578 0.17848206l12.963257 0.40420532l0.1784668 15.519684l0.22570801 15.475067l-5.8320312 0.44880676l-4.3963013 0.18110657l-23.45932 0.26771545l-15.251984 0l-19.333313 0.0446167l-14.128601 0.27035522l-3.005249 0.2230835l-0.80841064 0.22572327l-0.0892334 0.13386536l0 12.692917l0.0446167 13.905502l2.241455 0.22572327l21.937012 0.31233215l56.427856 0l0 15.790039l0 15.745392l-39.427856 0.0446167l-15.834625 0.0446167l-17.448822 0.22573853l-6.32547 0.2230835l-0.76116943 0.089263916l-0.2703247 0.2703247l-0.35958862 1.7926636l-0.2677002 6.2808228l0 8.522308l0.0446167 6.5485535l0.2677002 9.196869l0.13650513 1.1653442l0.5826721 0.1338501l5.5170593 0.27035522l16.283447 0.2230835l16.461945 0.04724121l15.653564 0l23.774292 0.2677307l4.307068 0.1784668l5.3831787 0.44882202l0 16.59842l0 16.595825l-14.220459 0.49343872l-8.748047 0.1784668l-37.498657 0.22570801l-22.698181 0.044647217l-54.724396 0l-0.44882202 -3.228363l-0.17849731 -6.1915894l-0.22570801 -44.451447l0 -58.0l0.22570801 -43.690292l0.17849731 -5.4724426l0.40420532 -1.6141815zm-320.45407 0.7165375l0 61.67717l0 32.118103l0.26771545 23.32547l0.27033997 4.934387l0.22309875 1.3910828l0.09186554 0.0892334l9.598419 0.1338501l30.905518 0.0446167l39.608917 0l0.17848206 19.11023l0.18110657 19.152252l-20.141739 -0.22311401l-25.703407 -0.18109131l-39.16011 -0.17849731l-44.677162 -0.1784668l0 -80.60892l0 -80.60631zm199.02887 -3.8136444l10.763763 0.6299286l7.5800476 0.9868622l4.7113037 0.80578613l4.351715 1.0314941l3.9474792 1.167984l1.7480469 0.6272888l2.4671936 1.0314941l4.530182 2.1076202l4.0839844 2.377945l3.6325378 2.6010437l3.2729797 2.9160156l2.871399 3.1863556l2.6010437 3.5433044l2.2886963 3.9475098l1.0315247 2.107605l0.8529968 1.9737549l1.8399048 4.8897705l1.5695496 5.0682373l0.94226074 4.036743l0.0892334 1.1207428l0 0.22572327l-0.3149414 0.40419006l-1.8399048 0.49343872l-13.320221 1.1207428l-24.223083 1.3464508l-7.1784973 0.4015808l-0.7165222 -2.734909l-0.44882202 -1.5249329l-0.94226074 -2.6929169l-1.1653442 -2.4671936l-1.3464661 -2.2414703l-1.5695496 -1.9737549l-1.7506714 -1.7506561l-1.9737244 -1.5249329l-2.2414856 -1.3438263l-1.2125854 -0.6299286l-1.2546082 -0.5826721l-2.1522217 -0.7165375l-2.5118103 -0.40420532l-3.7244263 -0.1338501l-2.6456604 0l-3.5433044 0.0446167l-3.9475098 0.26771545l-2.1102295 0.31495667l-1.7480469 0.5380554l-1.5695496 0.7165375l-2.0629883 1.5721893l-1.3910828 1.4356842l-1.1679688 1.3438416l-1.6141663 2.7821503l-0.76116943 2.7795258l0.0446167 2.7375336l0.85040283 2.556427l1.6614075 2.3779602l2.422577 2.107605l3.1390991 1.7952728l1.8399048 0.6719208l2.3753357 0.7637787l8.254578 2.152237l4.574829 1.0761108l8.477692 1.9291382l14.354309 3.7690277l11.6640625 3.7217865l7.1758423 2.826767l4.173218 1.9291229l1.881897 0.98687744l1.6167908 0.89501953l3.228363 2.0183716l3.0498657 2.3333435l2.9606323 2.556427l2.7375183 2.6929016l2.4671936 2.871399l2.2414856 2.9580078l1.8398743 2.9606323l0.80841064 1.5275574l0.7165222 1.5249329l1.2572327 3.4986877l0.98687744 3.9475098l0.7165222 4.21521l0.44882202 4.3070984l0.17849731 4.2598267l-0.17849731 4.036743l-0.49343872 3.7244263l-0.35958862 1.658783l-0.6272888 2.1548767l-1.3910828 4.21521l-1.7033997 3.9475098l-1.9737549 3.8136292l-2.2440796 3.543335l-2.4671936 3.3648071l-2.779541 3.1837463l-3.005249 2.9160156l-3.2755737 2.7348938l-3.4986877 2.4671936l-3.769043 2.2886963l-3.9921265 2.018402l-4.21521 1.7952576l-4.485565 1.5695496l-4.7113037 1.3438416l-4.8897705 1.0787354l-2.556427 0.44882202l-3.766388 0.5380554l-9.779541 0.6719055l-10.944885 0.22311401l-10.272949 -0.3123474l-4.170624 -0.3595581l-4.3516846 -0.49343872l-7.984268 -1.3464661l-7.1312256 -1.7926636l-6.3700867 -2.2440796l-5.7427673 -2.779541l-5.1128693 -3.3201904l-4.708664 -3.9921265l-4.3517 -4.619446l-2.0183716 -2.6036682l-0.94226074 -1.2545776l-1.8398895 -3.0498657l-1.7926636 -3.4986877l-1.7506561 -3.8136597l-1.5249329 -3.902893l-1.3018341 -3.902893l-0.98687744 -3.6325378l-0.5826721 -3.230957l-0.13386536 -1.3884583l-0.22572327 -3.8136597l3.141739 -0.49343872l2.152237 -0.2703247l10.091858 -0.67193604l6.3254547 -0.3595581l13.05249 -0.67193604l7.3123474 -0.49343872l4.934372 -0.40420532l0.89764404 4.4409485l0.5380554 2.3779602l1.5249481 4.351715l2.0183716 3.9475098l2.556427 3.454071l1.4803162 1.5695496l1.6141663 1.5249329l3.2756042 2.422577l3.4540405 1.792633l3.8582764 1.1679993l2.196869 0.4015503l1.8398743 0.27035522l3.454071 0.35958862l3.228363 0.0446167l3.097107 -0.18112183l2.913391 -0.49343872l2.7375183 -0.7165222l2.6010437 -0.98687744l2.422577 -1.2546082l1.1653442 -0.7637634l0.98687744 -0.6272888l1.7060547 -1.3910828l1.4356995 -1.4356995l1.1653442 -1.5249329l0.89764404 -1.6141663l0.6719055 -1.7060547l0.44882202 -1.792633l0.18109131 -1.9291382l0 -1.0314941l-0.09185791 -1.7952881l-0.3569336 -2.8267517l-0.85302734 -2.4199524l-1.4356995 -2.3333435l-1.0314941 -1.3464661l-0.6719055 -0.8057556l-1.9291382 -1.5721741l-2.5118103 -1.5695801l-3.1863708 -1.5249329l-3.8110046 -1.4803162l-4.4409485 -1.435669l-7.8950195 -2.196869l-6.236206 -1.3910828l-3.320221 -0.7611389l-6.5485535 -1.7506714l-6.3700867 -1.9291077l-6.0997314 -2.1522522l-5.6955414 -2.333313l-5.3385773 -2.422577l-4.800537 -2.556427l-4.259842 -2.645691l-1.8398895 -1.3464355l-1.5249329 -1.1653748l-2.7375336 -2.422577l-2.5118103 -2.6010437l-2.1968536 -2.7375336l-1.9737549 -2.9160004l-1.658783 -3.005249l-1.3910828 -3.0944977l-1.0761108 -3.230957l-0.8083954 -3.2729797l-0.5380707 -3.3648224l-0.22309875 -3.454071l0.08924866 -3.454071l0.35694885 -3.4540558l0.6745453 -3.5433197l0.98687744 -3.4986877l1.2992096 -3.4540558l0.7637787 -1.7480316l1.3018341 -2.5590668l3.049881 -4.7978973l3.7217712 -4.3963165l4.351715 -3.9475098l4.8897552 -3.454071l5.4724426 -3.005249l5.9658813 -2.5118103l6.45932 -1.9737549l3.409439 -0.7637787l2.8687744 -0.5826721l6.102356 -0.85040283l6.3700867 -0.62991333l6.5485535 -0.3123474l3.3175964 -0.09185791zm-11.125977 -1.6587982l-7.401581 0.31497192l-2.4671936 0.26771545l-6.233612 0.8976288l-7.041992 1.3464661l-3.9474945 0.9422455l-3.545929 1.1653595l-3.4514465 1.4356995l-5.3385925 2.6902924l-4.2178497 2.5118103l-1.837265 1.2126007l-4.485565 3.9028778l-4.3963165 4.530182l-2.4671936 2.9606323l-0.94226074 1.5249329l-0.18110657 0.5380554l-0.22309875 0.6719208l-0.49343872 0.89764404l-0.27033997 0.0892334l-0.22309875 0.0892334l-0.49343872 0.6745453l-0.1784668 0.49343872l-0.6299286 1.7480316l-1.1653442 3.141739l-0.5380707 1.5249329l-0.8530121 3.409439l-0.6273041 3.7217865l-0.31495667 3.902893l-0.0892334 3.9475098l0.22572327 3.9474945l0.44882202 3.7217865l0.7611542 3.4986877l0.49343872 1.5721893l0.6272888 1.7480316l1.5695496 3.409439l1.9737549 3.3648376l2.2887115 3.2729645l2.6456757 3.1417236l2.9160156 2.913391l3.1417236 2.7375183l3.3175812 2.422577l1.7506561 1.0761108l1.6141815 0.94226074l5.0682373 2.5118103l5.6089325 2.556427l4.393692 1.8399048l0.94226074 0.2677307l1.0314941 0.2703247l1.7952728 0.6272888l4.215225 1.3464661l16.7323 4.530182l5.6981506 1.3464661l3.9921265 0.85040283l5.383209 1.6167908l3.1837158 1.2099609l2.871399 1.3018494l2.5118103 1.3884583l2.1968384 1.5275574l1.8845215 1.5695496l1.5249329 1.7033997l1.1653442 1.7506714l0.85302734 1.8372498l0.44882202 1.9291382l0.1338501 1.9737549l-0.2677002 2.0183716l-0.62994385 2.11026l-1.0314941 2.107605l-0.6272888 1.1207275l-0.6719055 0.94226074l-1.6141663 1.7480164l-2.0656433 1.5249329l-2.3306885 1.3910828l-2.6483154 1.123352l-2.7795105 0.85040283l-2.9606323 0.5826721l-3.005249 0.22573853l-1.5249329 0l-2.0183716 -0.0446167l-1.4803162 -0.0446167l-0.98687744 -0.044647217l-2.1102295 -0.3595581l-3.4068298 -0.98687744l-4.577423 -2.0629883l-3.0944824 -1.9737549l-1.8845215 -1.4356995l-0.80578613 -0.80841064l-0.67453 -0.6719055l-1.4356995 -1.8399048l-2.0183716 -3.2729492l-2.1968384 -4.934387l-1.0761414 -3.5905457l-0.3595581 -2.1076355l-0.0446167 -0.8976135l-0.089263916 -0.67193604l-0.67453 -1.2099609l-0.49343872 -0.31497192l-0.8503876 -0.2230835l-4.845154 -0.04724121l-7.086609 0.2703247l-7.356949 0.49343872l-3.1391144 0.35958862l-3.724411 0.3569641l-13.05249 0.62991333l-5.0236206 0.1338501l-1.3464661 0.0446167l-2.377945 0.49343872l-0.6719208 0.35958862l-0.40419006 0.3123474l-0.44882202 0.67453l-0.08924866 1.7033997l0.40420532 2.422577l0.6719208 3.8582764l0.49343872 3.0498657l0.27033997 1.3018494l0.98687744 3.4067993l0.5826721 1.5722046l0.98687744 2.5118103l2.1968536 4.7086487l2.3333282 4.396332l2.556427 3.9921265l2.7375336 3.6771545l2.9606323 3.320221l3.2283478 3.0498657l3.4986877 2.6929016l3.724411 2.3753357l4.08136 2.1102295l4.351715 1.8372803l4.664032 1.5721741l5.0236206 1.3438416l5.427841 1.0314941l5.7427673 0.8529968l6.188965 0.58270264l3.2756042 0.22570801l3.7664185 0.22311401l8.522308 0.0892334l8.614166 -0.17849731l7.6246643 -0.44882202l3.005249 -0.3149414l2.5118103 -0.3569641l4.979004 -0.94226074l4.8897705 -1.2125854l4.75589 -1.4356995l4.530182 -1.7033997l4.3490906 -1.9291382l3.9921265 -2.1522522l3.679779 -2.333313l1.7034302 -1.2099915l1.3018188 -1.0314941l2.6903076 -2.5118103l2.782135 -2.9606323l2.6903076 -3.3201904l2.5590515 -3.4986877l2.3753357 -3.5879517l1.9737549 -3.5433044l1.6167908 -3.3201904l0.5380554 -1.5695496l0.5826721 -1.7506714l0.94226074 -3.9475098l0.6272888 -4.3044434l0.40420532 -4.485565l0.0892334 -4.5774536l-0.22570801 -4.4855347l-0.4908142 -4.2152405l-0.76379395 -3.7690125l-0.5380554 -1.6588135l-0.5826721 -1.7506409l-1.3910828 -3.3175964l-1.6141663 -3.1417236l-1.8399048 -3.005249l-2.107605 -2.8241577l-2.3333435 -2.648285l-2.6456604 -2.556427l-2.9160156 -2.3779602l-3.1863403 -2.330719l-3.5433044 -2.1548462l-3.8556519 -2.0629883l-4.2178345 -2.0183716l-6.952759 -2.8267822l-10.674561 -3.5879211l-6.0131226 -1.7034149l-3.6771545 -0.98687744l-9.196838 -2.1548462l-9.3280945 -1.9711304l-3.4094543 -0.7637787l-5.6981506 -1.6141815l-4.3937073 -1.7506561l-2.4671936 -1.4356995l-1.3018494 -1.0314941l-0.49343872 -0.49343872l-0.4487915 -0.5380554l-0.67193604 -1.0314941l-0.40420532 -1.2099762l-0.1784668 -1.4803162l0 -0.9422455l0.0446167 -1.5695648l0.49343872 -2.0183716l0.5380554 -1.1679688l0.80578613 -1.1207428l1.0314941 -1.0314941l2.0183716 -1.4803162l1.7952881 -0.94226074l1.2572021 -0.6719055l2.0183716 -0.80841064l2.2414856 -0.31495667l3.4094238 0l2.556427 0.09185791l2.1994934 0.08924866l3.3622131 0.26771545l2.4225464 0.40419006l1.9291382 0.6719208l0.94226074 0.44882202l1.3464661 0.719162l2.6456604 1.8398895l2.24411 1.9711304l1.0761108 1.2572174l0.3569641 0.7165375l0.04724121 0.22572327l0.0446167 0.40420532l0.5380554 0.8976288l0.40420532 0.3569641l0.49343872 0.5826721l1.2099609 2.6036682l0.5380554 1.6587982l0.5826721 1.8845062l0.94226074 2.330719l0.80841064 0.8530121l0.6272888 0.31495667l1.2572327 0.08924866l1.2099609 -0.13386536l6.45932 -0.44882202l30.816284 -1.7060242l6.685028 -0.26771545l0.4015808 0l0.62991333 -0.27035522l0.49343872 -0.44880676l0.3569641 -0.7611542l0.2703247 -1.5249329l-0.18109131 -3.049881l-0.3569641 -1.9737549l-0.5380554 -2.6929016l-1.1679688 -4.574814l-1.5249329 -4.036743l-2.0183716 -4.036743l-1.3464661 -2.1994781l-1.5249329 -2.4671936l-3.3622131 -4.393692l-3.7690125 -3.8582764l-4.2152405 -3.3648224l-4.8005066 -2.871399l-5.3385925 -2.4671783l-6.0551147 -2.1076202l-6.774292 -1.7034149l-3.7217712 -0.7637787l-2.0183716 -0.31495667l-5.8320312 -0.5380554l-11.034119 -0.5380554l-7.7611694 -0.08924866zm230.96848 178.3307l-0.2703247 0.1076355l0.2677002 0.0892334l3.8136597 0.22570801l13.007904 0.22311401l55.892334 0.2703247l68.67456 0.0446167l52.391113 0.0446167l71.68237 0.27035522l7.8031616 0.1784668l0.2703247 0.17849731l0.40423584 1.3018188l0.3569336 3.1837463l-0.0446167 5.2493286l-0.4487915 3.1837158l-0.44622803 1.2572327l-0.3149414 0.2230835l-2.2440796 0.13650513l-20.766418 0.1784668l-55.398987 0.0892334l-92.80835 -0.1338501l-55.039368 -0.27035522l-20.364868 -0.2230835l-1.9737549 -0.1338501l-3.7218018 0.1338501l-2.107605 0.1338501l-0.18109131 0.0892334l1.7952881 0.089263916l0.0892334 0.09185791l-1.1207275 0l-0.89764404 -0.0446167l-0.1338501 -0.13650513l0.1338501 -0.0892334l0 0l-1.0761108 0.0446167l-6.7296753 0.22573853l-1.7480469 0.2677002l-1.6141357 0.0446167l-1.0787354 -0.0892334l-0.35699463 0l-0.4934082 0.35958862l-0.0446167 0.3123474l-0.023620605 0.11810303l0 0l-2.131256 -0.11810303l-14.173218 -0.2677307l-62.125977 -0.31497192l-77.55905 -0.0892334l-60.286102 -0.0446167l-65.490814 -0.2703247l-23.144348 -0.22311401l-2.2440948 -0.0892334l-0.17848206 -0.67453l-0.22572327 -4.259857l0.0446167 -2.9160156l0.18110657 -7.312317l142.59842 -0.17849731l59.83728 -0.0892334l94.55905 -0.31497192l5.204712 -0.06298828zm-177.1391 -284.6404l5.0236206 0.04462433l9.687683 0.4488144l4.6194153 0.44882202l7.2230835 0.8083954l4.351715 0.40420532l3.2283325 0.40157318l3.4094543 0.62992096l3.5879211 0.7611542l3.769043 0.7637787l4.4409485 0.98687744l5.740143 1.4803162l5.2047424 1.3884506l2.5118103 0.67453766l2.9606323 0.8530197l8.97113 2.82415l2.0629883 0.7637787l2.199463 0.8976364l4.1259766 1.6141739l2.779541 1.1207352l7.582672 3.4094467l8.2966 4.036743l7.13385 3.724411l2.3779602 1.3884506l3.5433044 2.1102371l1.2099609 0.62729645l0.85302734 0.4041977l5.5170593 3.5879288l3.0944824 2.1522293l6.908142 5.023628l6.4147034 4.9789963l2.2886963 1.8398972l3.543335 2.8713913l2.241455 1.8845215l5.070862 4.7532806l5.5170593 5.653534l5.6955566 6.18898l5.6062927 6.503937l5.204712 6.4147034l4.6194153 6.0551147l3.6325684 5.427826l1.3910522 2.2887115l0.94226074 1.6141663l1.5249634 2.422577l0.4041748 0.35957336l0.3149414 0.26771545l0.85040283 1.3910828l0.94226074 1.7480316l0.62994385 1.5249329l0.0446167 0.44882202l-0.76379395 0.09185791l-8.611542 0.26771545l-24.446198 0.31497192l-22.608917 0.0892334l-56.43045 0.17848206l0 82.93964l0 33.23883l0.13647461 45.21524l0.089263916 4.8005066l3.4540405 0.0892334l32.385834 0.17849731l23.729675 0l24.939636 0.0446167l25.299194 0.22570801l8.611572 0.22311401l0.85302734 0.18109131l0.0892334 0.4015808l-0.62731934 2.1102295l-0.58270264 1.2992249l-0.4934082 0.94226074l-0.80841064 1.3018188l-0.85302734 0.71655273l-1.0761108 0.3149414l-0.76116943 0.0892334l-2.4225464 0.13388062l-5.446167 0.29656982l0 0l-0.07092285 -0.07086182l-20.679749 -0.18109131l-154.80054 -0.4015808l-72.62204 -0.0446167l-38.3071 0l-17.853012 0.0892334l-5.427826 0.0446167l0 8.700806l0.0446167 3.5433044l0.22572327 5.2939453l0.17848206 0.94226074l0.17848206 0.1784668l2.1548462 0.27035522l9.015747 0.3123474l53.065613 0.22570801l86.572174 -0.0446167l77.06302 -0.0892334l62.88974 -0.27035522l14.847778 -0.2230835l2.7375488 -0.11022949l0 0l-1.1679993 1.9028625l-3.3648376 4.7559204l-6.5485535 8.343842l-6.9081116 8.251953l-2.9160156 3.1417236l-3.8110352 3.9002686l-9.419952 9.196869l-4.979004 4.664032l-1.6167908 1.4356995l-4.1259766 3.2755737l-8.388458 6.010498l-7.939636 5.293976l-5.8320312 3.8556519l-2.9606018 1.9291382l-1.2546082 0.8083801l-5.6981506 2.9160156l-11.661438 5.6509094l-6.59317 2.9606323l-3.4986877 1.4803162l-7.582672 2.871399l-8.073486 2.6456604l-8.433075 2.4671936l-8.656158 2.196869l-8.748047 1.9291077l-8.700775 1.6168213l-8.433075 1.2099609l-4.128601 0.44882202l-3.4094543 0.2677002l-11.438324 0.35958862l-13.275604 0.0446167l-10.766388 -0.2230835l-2.7821655 -0.22573853l-4.7086487 -0.6272888l-11.619415 -1.8845215l-11.706055 -2.107605l-9.152222 -1.9291382l-2.4199524 -0.6719055l-3.8136597 -1.2125854l-6.370056 -1.9737549l-5.023636 -1.6141968l-11.708664 -4.5747986l-12.1102295 -5.427826l-8.162735 -4.1259766l-4.711273 -2.556427l-1.9737549 -1.2125854l-5.6509247 -3.5879517l-11.931763 -7.8057556l-1.7952728 -1.3438416l-0.94226074 -0.85302734l-2.377945 -1.7506409l-1.7034149 -1.2546082l-4.08136 -3.3648071l-7.041992 -6.32547l-10.139114 -9.868774l-6.952759 -7.3989563l-3.9475098 -4.577423l-1.658783 -2.0183716l-4.125992 -5.291321l-6.1469727 -8.56955l-2.5118103 -3.7664185l-0.22309875 -0.5826721l-0.719162 -1.3910828l-2.3307037 -3.7690125l-1.4356995 -2.2414856l-3.3648376 -6.0551147l-1.4803162 -2.871399l-3.1390991 -6.3700867l2.107605 -0.4487915l1.8399048 -0.17849731l10.853012 -0.22570801l24.986877 0l0 -21.036743l0 -10.811035l-0.27033997 -7.984253l-0.26771545 -1.7480164l-0.22572327 -0.49343872l-0.0892334 -0.04727173l-5.2021027 0l-15.745407 0.04727173l-8.343842 0l-14.173225 -0.22573853l-3.545929 -0.1784668l-6.010498 -0.44882202l-0.7165375 -4.6666565l-0.5380554 -4.0367737l-0.8976364 -8.881866l-0.49343872 -9.372711l-0.08924103 -9.196838l0.13385773 -4.259857l0.3149643 -6.908142l0.9422531 -10.094482l0.93963623 -6.5485535l0.58529663 -3.5433044l2.1968536 -9.375336l2.8267746 -10.317581l2.916008 -9.060364l1.2545929 -3.183731l1.7060394 -4.173233l1.3438263 -3.4986877l0.5380554 -1.388443l1.3018494 -2.7821503l0.5826721 -0.89764404l0.44882202 -0.7611542l0.6719055 -1.3910828l0.04725647 -0.40419006l0.1338501 -0.6273041l1.1207428 -2.6036682l3.3202057 -6.010498l6.4147034 -10.451447l6.8608856 -10.13649l2.9160156 -3.858261l2.3333282 -3.005249l2.0183716 -2.6010437l1.3018341 -1.6587982l3.3622131 -3.858261l6.1469727 -6.5485687l9.464569 -9.24147l6.908142 -6.144348l4.08136 -3.4094543l1.7952728 -1.3910751l2.2414703 -1.6587906l1.9291382 -1.5249329l1.4356995 -1.078743l7.8950043 -5.291336l8.611557 -5.5170593l1.7506561 -1.1233597l4.7978973 -2.6456757l8.881882 -4.4855576l13.18898 -6.0105057l8.745407 -3.5433044l4.577423 -1.6141739l1.7034302 -0.49343872l4.1259766 -1.1233597l7.939636 -2.286087l3.454071 -0.98687744l7.178467 -1.7506561l7.401581 -1.5249329l7.5800476 -1.2992172l7.7138977 -1.0341187l7.7165527 -0.8057709l7.7138977 -0.53806305l7.671936 -0.27033997zm-0.62991333 -1.3438263l-7.535431 0.0446167l-11.304474 0.26771545l-8.97113 0.719162l-9.238831 1.4330673l-5.698181 1.0341263l-4.5747986 0.8950119l-9.824127 2.2887115l-9.330719 2.4225693l-7.3097076 2.1968536l-2.2440948 0.8976364l-2.8267822 1.1207352l-6.32283 2.4225693l-3.724411 1.4803162l-7.3097076 3.1863556l-7.2677155 3.4540634l-7.178482 3.8556442l-7.1312256 4.173233l-7.131241 4.5747986l-7.13385 4.934387l-7.265091 5.3832016l-3.6797943 2.8687668l-2.601059 2.1994705l-7.805771 7.312332l-8.790024 8.656174l-7.178482 7.535431l-2.0183716 2.3779602l-2.2414703 2.826767l-0.8976288 1.0314941l-0.7637787 0.98687744l-1.881897 2.5118103l-2.2887115 3.183731l-2.3333282 3.1390991l-1.9737549 2.7821655l-4.7532806 7.716522l-5.070877 8.926514l-4.48555 8.745407l-1.7034149 3.724411l-1.6587982 3.7664032l-3.0498657 7.8503876l-2.7375336 8.073502l-2.4671936 8.165344l-2.1076126 8.207352l-1.7060318 8.073502l-1.2992172 7.8503876l-0.8530197 7.490814l-0.26771545 3.5905457l-0.18109894 4.3937073l0 10.811035l0.359581 11.34906l0.67191315 9.779541l0.44882202 3.454071l1.3018341 8.251953l-24.986877 0l0 -60.24147l0 -26.419937l-0.26771545 -25.703415l-0.22572327 -8.792648l-0.17847443 -1.1207428l-0.6719208 -1.7926483l-26.15223 0.17848206l-26.104984 0.17848206l0 83.02887l0 83.07611l45.887135 0.3569641l45.88714 0.3595581l0.85302734 1.7480469l2.2887115 4.577423l4.8871307 9.10498l5.115494 8.656189l5.0682373 7.8503723l2.4671936 3.454071l2.734909 3.6351624l5.653549 7.0866394l6.010498 6.8162537l6.280838 6.551178l6.5485535 6.3228455l6.816269 6.010498l7.0446167 5.6981506l7.309723 5.4724426l7.5380554 5.1128845l7.713913 4.8005066l7.939621 4.485565l8.118118 4.170624l8.29921 3.8136292l8.433075 3.454071l8.566925 3.0944824l8.7034 2.7375488l4.4409485 1.2099609l4.934387 1.2572327l10.317596 2.3306885l10.270325 1.8845215l9.690308 1.4356995l4.34906 0.44882202l3.902893 0.2230835l14.35434 0l17.136475 -0.3569336l13.994751 -0.67456055l3.5433044 -0.40420532l4.979004 -0.8057556l9.419952 -1.7506714l8.881897 -1.9291382l8.477692 -2.1968384l8.16272 -2.4671936l7.984253 -2.7348938l7.8950195 -3.0971375l7.939636 -3.4540405l4.036743 -1.881897l3.1863403 -1.5721741l8.16275 -4.3937073l8.56955 -4.979004l6.952759 -4.3070984l2.0629883 -1.4803162l2.4671936 -1.7952576l6.6824036 -4.979004l3.7243958 -2.8241577l7.8477783 -6.6404114l7.805786 -7.265106l7.312317 -7.490814l3.2729797 -3.679779l4.800537 -5.740143l7.8057556 -10.049896l3.7217712 -5.0682373l0.80841064 -1.3464355l0.1338501 -0.22311401l1.2125854 -0.40420532l6.189026 -0.3595581l44.85559 -0.2677307l82.62732 0.0892334l81.63782 0.0892334l45.170593 -0.2677002l6.370056 -0.35958862l1.1653442 -0.35958862l0.044677734 -0.2230835l0.09185791 -2.6929016l-0.09185791 -6.099762l-0.31237793 -5.6062927l-0.4487915 -3.7243958l-0.22570801 -0.49343872l-1.9737549 -0.1338501l-19.690308 -0.13388062l-55.577454 -0.1338501l-51.002625 0.0446167l-50.955383 0.0446167l-55.22046 -0.1338501l-19.422546 -0.18109131l-1.7926636 -0.089263916l0.0892334 -0.5380554l0.67193604 -1.8398743l0.98687744 -2.0183716l0.94226074 -1.5695801l0.3595581 -0.3149414l0.85302734 -0.22311401l5.6954956 -0.2703247l3.902893 -0.0446167l9.643066 0l0 -19.196869l0 -7.312317l-0.0892334 -6.908142l-0.2230835 -2.871399l-0.40423584 -1.7480164l-0.7637329 -0.89764404l-1.7034302 -0.35958862l-1.8399048 0.0446167l-2.8241577 0l0.49346924 -2.6456604l0.4934082 -2.7821655l0.89501953 -5.921234l0.98687744 -9.464569l0.67456055 -13.186371l-0.0446167 -9.824127l-0.27038574 -6.3700867l-0.2230835 -3.0498657l-0.3595581 -4.485565l-0.80841064 -7.4461975l-0.3123169 -1.7480316l-0.94226074 -4.173233l-1.5695801 -7.401581l-1.5275269 -7.1312256l-0.89501953 -3.183731l-0.18109131 -0.49343872l0 -0.67453l0.7191162 -0.35958862l1.7926636 -0.1338501l1.43573 -0.08924866l4.3516846 -0.22309875l0 -18.2126l0 -18.212585l-12.202087 -0.3569641l-5.6955566 -0.18110657l-5.0236206 -0.44880676l-1.5695801 -0.3123474l-0.18109131 -0.22572327l-0.3123169 -0.8057709l-1.4803467 -2.648285l-3.543274 -5.740158l-6.32547 -9.330719l-6.3700867 -8.748032l-2.5118103 -3.1390991l-3.0944824 -3.5879364l-6.3254395 -6.9527435l-6.5932007 -6.5931854l-6.7742615 -6.280838l-6.9973755 -6.010498l-7.223114 -5.6535416l-7.4461975 -5.3359604l-7.6246643 -4.9789963l-7.8057556 -4.7112885l-8.073517 -4.3517075l-8.207336 -3.9921265l-8.433075 -3.6771622l-8.614166 -3.36483l-8.790039 -3.005249l-8.97113 -2.645668l-9.152222 -2.3333359l-4.6194153 -1.0314941l-5.876648 -1.2099762l-10.451447 -1.6614151l-10.585297 -0.98687744l-12.425201 -0.35695648l-7.627289 -0.0446167z" fill-rule="nonzero"/></g></svg>